<svg xmlns="http://www.w3.org/2000/svg" viewBox="0 0 1280 720" width="1280" height="720">
  <rect width="1280" height="720" fill="#F6F8F3" />
  <text x="640" y="76" text-anchor="middle" font-family="'Microsoft YaHei', Arial, sans-serif" font-size="44" font-weight="800" fill="#1E2A25">消费场景不是“买零食”，而是四种日常关系</text>
  <text x="640" y="114" text-anchor="middle" font-family="'Microsoft YaHei', Arial, sans-serif" font-size="20" fill="#5F6E65">渠道招商时，用场景帮助合作方判断谁来买、为什么买、如何复购</text>
  <circle cx="640" cy="378" r="104" fill="#2F5D50" />
  <circle cx="640" cy="378" r="82" fill="none" stroke="#FFFFFF" stroke-width="2" stroke-opacity="0.45" />

  <g transform="translate(608, 318) scale(2.66667)" fill="#FFFFFF">
    <path d="M12 10c-1.32 0 -1.983 .421 -2.931 1.924l-.244 .398l-.395 .688a50.89 50.89 0 0 0 -.141 .254c-.24 .434 -.571 .753 -1.139 1.142l-.55 .365c-.94 .627 -1.432 1.118 -1.707 1.955c-.124 .338 -.196 .853 -.193 1.28c0 1.687 1.198 2.994 2.8 2.994l.242 -.006c.119 -.006 .234 -.017 .354 -.034l.248 -.043l.132 -.028l.291 -.073l.162 -.045l.57 -.17l.763 -.243l.455 -.136c.53 -.15 .94 -.222 1.283 -.222c.344 0 .753 .073 1.283 .222l.455 .136l.764 .242l.569 .171l.312 .084c.097 .024 .187 .045 .273 .062l.248 .043c.12 .017 .235 .028 .354 .034l.242 .006c1.602 0 2.8 -1.307 2.8 -3c0 -.427 -.073 -.939 -.207 -1.306c-.236 -.724 -.677 -1.223 -1.48 -1.83l-.257 -.19l-.528 -.38c-.642 -.47 -1.003 -.826 -1.253 -1.278l-.27 -.485l-.252 -.432c-1.011 -1.696 -1.618 -2.099 -3.053 -2.099z" />
    <path d="M19.78 7h-.03c-1.219 .02 -2.35 1.066 -2.908 2.504c-.69 1.775 -.348 3.72 1.075 4.333c.256 .109 .527 .163 .801 .163c1.231 0 2.38 -1.053 2.943 -2.504c.686 -1.774 .34 -3.72 -1.076 -4.332a2.05 2.05 0 0 0 -.804 -.164z" />
    <path d="M9.025 3c-.112 0 -.185 .002 -.27 .015l-.093 .016c-1.532 .206 -2.397 1.989 -2.108 3.855c.272 1.725 1.462 3.114 2.92 3.114l.187 -.005a1.26 1.26 0 0 0 .084 -.01l.092 -.016c1.533 -.206 2.397 -1.989 2.108 -3.855c-.27 -1.727 -1.46 -3.114 -2.92 -3.114z" />
    <path d="M14.972 3c-1.459 0 -2.647 1.388 -2.916 3.113c-.29 1.867 .574 3.65 2.174 3.867c.103 .013 .2 .02 .296 .02c1.39 0 2.543 -1.265 2.877 -2.883l.041 -.23c.29 -1.867 -.574 -3.65 -2.174 -3.867a2.154 2.154 0 0 0 -.298 -.02z" />
    <path d="M4.217 7c-.274 0 -.544 .054 -.797 .161c-1.426 .615 -1.767 2.562 -1.078 4.335c.563 1.451 1.71 2.504 2.941 2.504c.274 0 .544 -.054 .797 -.161c1.426 -.615 1.767 -2.562 1.078 -4.335c-.563 -1.451 -1.71 -2.504 -2.941 -2.504z" />
  </g>
  <text x="640" y="414" text-anchor="middle" font-family="'Microsoft YaHei', Arial, sans-serif" font-size="29" font-weight="800" fill="#FFFFFF">宠物家庭</text>
  <text x="640" y="446" text-anchor="middle" font-family="'Microsoft YaHei', Arial, sans-serif" font-size="18" fill="#FFFFFF">复购关系入口</text>
  <line x1="566" y1="304" x2="320" y2="198" stroke="#8EB69B" stroke-width="3" stroke-linecap="round" />
  <line x1="714" y1="304" x2="960" y2="198" stroke="#8EB69B" stroke-width="3" stroke-linecap="round" />
  <line x1="566" y1="452" x2="320" y2="558" stroke="#8EB69B" stroke-width="3" stroke-linecap="round" />
  <line x1="714" y1="452" x2="960" y2="558" stroke="#8EB69B" stroke-width="3" stroke-linecap="round" />
  <path fill="#FFFFFF" stroke="#DDE6DB" stroke-width="1.5" d="M138,154 H442 A18,18 0 0 1 460,172 V266 A18,18 0 0 1 442,284 H138 A18,18 0 0 1 120,266 V172 A18,18 0 0 1 138,154 Z" />

  <g transform="translate(152, 188) scale(1.41667)" fill="#2F5D50">
    <path d="M15 2a4 4 0 0 1 3.881 3.03l.016 .072l.08 .019a4 4 0 0 1 2.83 2.65l.057 .193a4 4 0 0 1 -5.847 4.51l-.047 -.029l-3.525 3.525l.042 .07a4 4 0 0 1 .117 3.696l-.102 .197a4 4 0 0 1 -4.386 1.969a3.99 3.99 0 0 1 -2.982 -2.904l-.023 -.095l-.138 -.033a4 4 0 0 1 -2.82 -2.783l-.05 -.199a4 4 0 0 1 5.865 -4.368l.068 .04l3.524 -3.524l-.036 -.061a4 4 0 0 1 -.293 -3.295l.079 -.205a4 4 0 0 1 3.695 -2.47l-.139 .004l.02 -.003z" />
  </g>
  <text x="204" y="208" font-family="'Microsoft YaHei', Arial, sans-serif" font-size="26" font-weight="800" fill="#1E2A25">日常奖励</text>
  <text x="204" y="246" font-family="'Microsoft YaHei', Arial, sans-serif" font-size="19" fill="#5F6E65">高频小额，适合门店常备陈列</text>
  <path fill="#FFFFFF" stroke="#DDE6DB" stroke-width="1.5" d="M838,154 H1142 A18,18 0 0 1 1160,172 V266 A18,18 0 0 1 1142,284 H838 A18,18 0 0 1 820,266 V172 A18,18 0 0 1 838,154 Z" />

  <g transform="translate(852, 188) scale(1.41667)" fill="#2F5D50">
    <path d="M16.675 6.44l.118 .005a1 1 0 0 1 .232 .052l.032 .015l.273 .103c1.936 .771 3.69 2.27 5.253 4.476l.245 .355a1 1 0 0 1 0 1.12c-1.702 2.519 -3.636 4.176 -5.792 4.947a1 1 0 0 1 -1.093 -.288a7.97 7.97 0 0 1 -1.883 -4.225h-2.06v3a1 1 0 0 1 -2 0v-3h-2v1a1 1 0 0 1 -2 0v-1h-1.166l-.335 .324a39 39 0 0 0 -1.751 1.846a1 1 0 0 1 -1.496 -1.328q .593 -.667 1.214 -1.308l.522 -.528l-.523 -.529a42 42 0 0 1 -.613 -.648l-.6 -.661a1 1 0 1 1 1.496 -1.328a40 40 0 0 0 2.069 2.161l1.183 -.001v-1a1 1 0 1 1 2 0v1h2v-3a1 1 0 0 1 2 0v3h2.062a7.97 7.97 0 0 1 1.656 -3.953l.196 -.24l.075 -.081l.105 -.088l.068 -.048l.097 -.052l.069 -.03l.138 -.042l.091 -.017q .059 -.007 .118 -.009m1.325 3.56a1 1 0 0 0 -.993 .883l-.007 .127a1 1 0 0 0 1.993 .117l.007 -.127a1 1 0 0 0 -1 -1" />
  </g>
  <text x="904" y="208" font-family="'Microsoft YaHei', Arial, sans-serif" font-size="26" font-weight="800" fill="#1E2A25">营养加餐</text>
  <text x="904" y="246" font-family="'Microsoft YaHei', Arial, sans-serif" font-size="19" fill="#5F6E65">和主粮、罐头形成搭配销售</text>
  <path fill="#FFFFFF" stroke="#DDE6DB" stroke-width="1.5" d="M138,498 H442 A18,18 0 0 1 460,516 V610 A18,18 0 0 1 442,628 H138 A18,18 0 0 1 120,610 V516 A18,18 0 0 1 138,498 Z" />

  <g transform="translate(152, 532) scale(1.41667)" fill="#D6A756">
    <path d="M11.998 2l.118 .007l.059 .008l.061 .013l.111 .034a.993 .993 0 0 1 .217 .112l.104 .082l.255 .218a11 11 0 0 0 7.189 2.537l.342 -.01a1 1 0 0 1 1.005 .717a13 13 0 0 1 -9.208 16.25a1 1 0 0 1 -.502 0a13 13 0 0 1 -9.209 -16.25a1 1 0 0 1 1.005 -.717a11 11 0 0 0 7.531 -2.527l.263 -.225l.096 -.075a.993 .993 0 0 1 .217 -.112l.112 -.034a.97 .97 0 0 1 .119 -.021l.115 -.007zm3.71 7.293a1 1 0 0 0 -1.415 0l-3.293 3.292l-1.293 -1.292l-.094 -.083a1 1 0 0 0 -1.32 1.497l2 2l.094 .083a1 1 0 0 0 1.32 -.083l4 -4l.083 -.094a1 1 0 0 0 -.083 -1.32z" />
  </g>
  <text x="204" y="552" font-family="'Microsoft YaHei', Arial, sans-serif" font-size="26" font-weight="800" fill="#1E2A25">口腔护理</text>
  <text x="204" y="590" font-family="'Microsoft YaHei', Arial, sans-serif" font-size="19" fill="#5F6E65">把“功能型零食”转为周期复购</text>
  <path fill="#FFFFFF" stroke="#DDE6DB" stroke-width="1.5" d="M838,498 H1142 A18,18 0 0 1 1160,516 V610 A18,18 0 0 1 1142,628 H838 A18,18 0 0 1 820,610 V516 A18,18 0 0 1 838,498 Z" />

  <g transform="translate(852, 532) scale(1.41667)" fill="#D6A756">
    <path d="M9.172 5a3 3 0 0 1 2.121 .879l5.71 5.71a3.41 3.41 0 0 1 0 4.822l-3.592 3.592a3.41 3.41 0 0 1 -4.822 0l-5.71 -5.71a3 3 0 0 1 -.879 -2.121v-4.172a3 3 0 0 1 3 -3zm-2.172 4h-.01a1 1 0 1 0 .01 2a1 1 0 0 0 0 -2" />
    <path d="M14.293 5.293a1 1 0 0 1 1.414 0l4.593 4.592a5.82 5.82 0 0 1 0 8.23l-1.592 1.592a1 1 0 0 1 -1.414 -1.414l1.592 -1.592a3.82 3.82 0 0 0 0 -5.402l-4.592 -4.592a1 1 0 0 1 0 -1.414" />
  </g>
  <text x="904" y="552" font-family="'Microsoft YaHei', Arial, sans-serif" font-size="26" font-weight="800" fill="#1E2A25">训练互动</text>
  <text x="904" y="590" font-family="'Microsoft YaHei', Arial, sans-serif" font-size="19" fill="#5F6E65">适合社群打卡、训练课和活动</text>
  <text x="60" y="674" font-family="'Microsoft YaHei', Arial, sans-serif" font-size="15" fill="#8A968E">Source: 商品分类、标签和适用文案重构</text>
  <text x="1220" y="674" font-family="'Microsoft YaHei', Arial, sans-serif" font-size="15" fill="#8A968E" text-anchor="end">05</text>
</svg>