<svg xmlns="http://www.w3.org/2000/svg" viewBox="0 0 1280 720" width="1280" height="720">
  <rect width="1280" height="720" fill="#F6F8F3" />
  <text x="60" y="78" font-family="'Microsoft YaHei', Arial, sans-serif" font-size="43" font-weight="800" fill="#1E2A25">前台购买链路已经具备从种草到下单的演示闭环</text>
  <text x="60" y="116" font-family="'Microsoft YaHei', Arial, sans-serif" font-size="20" fill="#5F6E65">静态商城不止展示商品，还能演示筛选、详情、加购、地址与订单写入</text>
  <line x1="116" y1="252" x2="1118" y2="252" stroke="#8EB69B" stroke-width="4" stroke-linecap="round" />
  <polygon points="1118,242 1142,252 1118,262" fill="#8EB69B" />
  <path fill="#FFFFFF" stroke="#DDE6DB" stroke-width="1.5" d="M78,176 H222 A18,18 0 0 1 240,194 V312 A18,18 0 0 1 222,330 H78 A18,18 0 0 1 60,312 V194 A18,18 0 0 1 78,176 Z" />
  <circle cx="150" cy="208" r="28" fill="#EEF4EC" />

  <g transform="translate(134, 192) scale(1.33333)" fill="#2F5D50">
    <path d="M9.172 5a3 3 0 0 1 2.121 .879l5.71 5.71a3.41 3.41 0 0 1 0 4.822l-3.592 3.592a3.41 3.41 0 0 1 -4.822 0l-5.71 -5.71a3 3 0 0 1 -.879 -2.121v-4.172a3 3 0 0 1 3 -3zm-2.172 4h-.01a1 1 0 1 0 .01 2a1 1 0 0 0 0 -2" />
    <path d="M14.293 5.293a1 1 0 0 1 1.414 0l4.593 4.592a5.82 5.82 0 0 1 0 8.23l-1.592 1.592a1 1 0 0 1 -1.414 -1.414l1.592 -1.592a3.82 3.82 0 0 0 0 -5.402l-4.592 -4.592a1 1 0 0 1 0 -1.414" />
  </g>
  <text x="150" y="270" text-anchor="middle" font-family="'Microsoft YaHei', Arial, sans-serif" font-size="24" font-weight="800" fill="#1E2A25">分类筛选</text>
  <text x="150" y="302" text-anchor="middle" font-family="'Microsoft YaHei', Arial, sans-serif" font-size="18" fill="#5F6E65">宠物和食品类型</text>
  <path fill="#FFFFFF" stroke="#DDE6DB" stroke-width="1.5" d="M318,176 H462 A18,18 0 0 1 480,194 V312 A18,18 0 0 1 462,330 H318 A18,18 0 0 1 300,312 V194 A18,18 0 0 1 318,176 Z" />
  <circle cx="390" cy="208" r="28" fill="#EEF4EC" />

  <g transform="translate(374, 192) scale(1.33333)" fill="#2F5D50">
    <path d="M8.207 3.793a1 1 0 0 1 0 1.414l-2.5 2.5a1 1 0 0 1 -1.414 0l-1.5 -1.5a1 1 0 0 1 1.414 -1.414l.793 .793l1.793 -1.793a1 1 0 0 1 1.414 0" />
    <path d="M8.207 9.793a1 1 0 0 1 0 1.414l-2.5 2.5a1 1 0 0 1 -1.414 0l-1.5 -1.5a1 1 0 0 1 1.414 -1.414l.793 .793l1.793 -1.793a1 1 0 0 1 1.414 0" />
    <path d="M8.207 15.793a1 1 0 0 1 0 1.414l-2.5 2.5a1 1 0 0 1 -1.414 0l-1.5 -1.5a1 1 0 0 1 1.414 -1.414l.793 .793l1.793 -1.793a1 1 0 0 1 1.414 0" />
    <path d="M21 6a1 1 0 0 1 -1 1h-9a1 1 0 0 1 0 -2h9a1 1 0 0 1 1 1" />
    <path d="M21 12a1 1 0 0 1 -1 1h-9a1 1 0 0 1 0 -2h9a1 1 0 0 1 1 1" />
    <path d="M21 18a1 1 0 0 1 -1 1h-9a1 1 0 0 1 0 -2h9a1 1 0 0 1 1 1" />
  </g>
  <text x="390" y="270" text-anchor="middle" font-family="'Microsoft YaHei', Arial, sans-serif" font-size="24" font-weight="800" fill="#1E2A25">查看详情</text>
  <text x="390" y="302" text-anchor="middle" font-family="'Microsoft YaHei', Arial, sans-serif" font-size="18" fill="#5F6E65">成分和适用场景</text>
  <path fill="#FFFFFF" stroke="#DDE6DB" stroke-width="1.5" d="M558,176 H702 A18,18 0 0 1 720,194 V312 A18,18 0 0 1 702,330 H558 A18,18 0 0 1 540,312 V194 A18,18 0 0 1 558,176 Z" />
  <circle cx="630" cy="208" r="28" fill="#EEF4EC" />

  <g transform="translate(614, 192) scale(1.33333)" fill="#D6A756">
    <path d="M6 2a1 1 0 0 1 .993 .883l.007 .117v1.068l13.071 .935a1 1 0 0 1 .929 1.024l-.01 .114l-1 7a1 1 0 0 1 -.877 .853l-.113 .006h-12v2h10a3 3 0 1 1 -2.995 3.176l-.005 -.176l.005 -.176c.017 -.288 .074 -.564 .166 -.824h-5.342a3 3 0 1 1 -5.824 1.176l-.005 -.176l.005 -.176a3.002 3.002 0 0 1 1.995 -2.654v-12.17h-1a1 1 0 0 1 -.993 -.883l-.007 -.117a1 1 0 0 1 .883 -.993l.117 -.007h2zm0 16a1 1 0 1 0 0 2a1 1 0 0 0 0 -2m11 0a1 1 0 1 0 0 2a1 1 0 0 0 0 -2" />
  </g>
  <text x="630" y="270" text-anchor="middle" font-family="'Microsoft YaHei', Arial, sans-serif" font-size="24" font-weight="800" fill="#1E2A25">加入购物车</text>
  <text x="630" y="302" text-anchor="middle" font-family="'Microsoft YaHei', Arial, sans-serif" font-size="18" fill="#5F6E65">数量和总价联动</text>
  <path fill="#FFFFFF" stroke="#DDE6DB" stroke-width="1.5" d="M798,176 H942 A18,18 0 0 1 960,194 V312 A18,18 0 0 1 942,330 H798 A18,18 0 0 1 780,312 V194 A18,18 0 0 1 798,176 Z" />
  <circle cx="870" cy="208" r="28" fill="#EEF4EC" />

  <g transform="translate(854, 192) scale(1.33333)" fill="#D6A756">
    <path d="M12 2a5 5 0 1 1 -5 5l.005 -.217a5 5 0 0 1 4.995 -4.783z" />
    <path d="M14 14a5 5 0 0 1 5 5v1a2 2 0 0 1 -2 2h-10a2 2 0 0 1 -2 -2v-1a5 5 0 0 1 5 -5h4z" />
  </g>
  <text x="870" y="270" text-anchor="middle" font-family="'Microsoft YaHei', Arial, sans-serif" font-size="24" font-weight="800" fill="#1E2A25">填写地址</text>
  <text x="870" y="302" text-anchor="middle" font-family="'Microsoft YaHei', Arial, sans-serif" font-size="18" fill="#5F6E65">用户与收货信息</text>
  <path fill="#2F5D50" d="M1038,176 H1182 A18,18 0 0 1 1200,194 V312 A18,18 0 0 1 1182,330 H1038 A18,18 0 0 1 1020,312 V194 A18,18 0 0 1 1038,176 Z" />
  <circle cx="1110" cy="208" r="28" fill="#FFFFFF" fill-opacity="0.18" />

  <g transform="translate(1094, 192) scale(1.33333)" fill="#FFFFFF">
    <path d="M17 2a3 3 0 0 1 3 3v16a1 1 0 0 1 -1.555 .832l-2.318 -1.545l-1.42 1.42a1 1 0 0 1 -1.32 .083l-.094 -.083l-1.293 -1.292l-1.293 1.292a1 1 0 0 1 -1.32 .083l-.094 -.083l-1.421 -1.42l-2.317 1.545l-.019 .012l-.054 .03l-.028 .017l-.054 .023l-.05 .023l-.049 .015l-.06 .019l-.052 .009l-.057 .011l-.084 .006l-.026 .003h-.022l-.049 -.003h-.039l-.013 -.003h-.016l-.041 -.008l-.038 -.005l-.015 -.005l-.018 -.002l-.034 -.011l-.04 -.01l-.019 -.007l-.015 -.004l-.029 -.013l-.04 -.015l-.021 -.011l-.013 -.005l-.028 -.016l-.036 -.018l-.014 -.01l-.018 -.01l-.038 -.027l-.022 -.014l-.01 -.009l-.02 -.014l-.045 -.041l-.012 -.008l-.024 -.024l-.035 -.039l-.02 -.02l-.007 -.011l-.011 -.012l-.032 -.045l-.02 -.025l-.012 -.019l-.03 -.054l-.017 -.028l-.023 -.054l-.023 -.05a1 1 0 0 1 -.034 -.108l-.01 -.057l-.01 -.053l-.009 -.132v-16a3 3 0 0 1 3 -3zm-1.445 4.168a1 1 0 0 0 -1.387 .277l-2.168 3.252l-2.168 -3.252a1 1 0 0 0 -1.664 1.11l2.297 3.445h-1.465a1 1 0 0 0 0 2h2v3a1 1 0 0 0 1 1l.117 -.007a1 1 0 0 0 .883 -.993v-3h2a1 1 0 0 0 0 -2h-1.465l2.297 -3.445a1 1 0 0 0 -.277 -1.387" />
  </g>
  <text x="1110" y="270" text-anchor="middle" font-family="'Microsoft YaHei', Arial, sans-serif" font-size="24" font-weight="800" fill="#FFFFFF">生成订单</text>
  <text x="1110" y="302" text-anchor="middle" font-family="'Microsoft YaHei', Arial, sans-serif" font-size="18" fill="#FFFFFF">写入本地订单</text>
  <path fill="#FFFFFF" stroke="#DDE6DB" stroke-width="1.5" d="M112,410 H1168 A20,20 0 0 1 1188,430 V536 A20,20 0 0 1 1168,556 H112 A20,20 0 0 1 92,536 V430 A20,20 0 0 1 112,410 Z" />
  <text x="132" y="460" font-family="'Microsoft YaHei', Arial, sans-serif" font-size="28" font-weight="800" fill="#1E2A25">对合作方的价值</text>
  <text x="132" y="510" font-family="'Microsoft YaHei', Arial, sans-serif" font-size="23" fill="#5F6E65">1. 招商现场可直接模拟购买，降低“只有产品图”的抽象感</text>
  <text x="690" y="510" font-family="'Microsoft YaHei', Arial, sans-serif" font-size="23" fill="#5F6E65">2. 真实下单后后台同步出现，便于演示经营闭环</text>
  <text x="60" y="674" font-family="'Microsoft YaHei', Arial, sans-serif" font-size="15" fill="#8A968E">Source: index.html、script.js、auth.js 与 localStorage 订单结构</text>
  <text x="1220" y="674" font-family="'Microsoft YaHei', Arial, sans-serif" font-size="15" fill="#8A968E" text-anchor="end">06</text>
</svg>