<svg xmlns="http://www.w3.org/2000/svg" viewBox="0 0 1280 720" width="1280" height="720">
  <rect width="1280" height="720" fill="#F6F8F3" />
  <text x="60" y="78" font-family="'Microsoft YaHei', Arial, sans-serif" font-size="43" font-weight="800" fill="#1E2A25">管理后台把招商演示从“产品展示”推进到“经营展示”</text>
  <text x="60" y="116" font-family="'Microsoft YaHei', Arial, sans-serif" font-size="20" fill="#5F6E65">前台订单和后台新品统一进入本地数据层，形成可复盘的演示沙盘</text>
  <path fill="#FFFFFF" stroke="#DDE6DB" stroke-width="1.5" d="M94,166 H818 A18,18 0 0 1 836,184 V256 A18,18 0 0 1 818,274 H94 A18,18 0 0 1 76,256 V184 A18,18 0 0 1 94,166 Z" />
  <path fill="#EEF4EC" d="M110,186 H156 A14,14 0 0 1 170,200 V240 A14,14 0 0 1 156,254 H110 A14,14 0 0 1 96,240 V200 A14,14 0 0 1 110,186 Z" />

  <g transform="translate(115, 202) scale(1.5)" fill="#2F5D50">
    <path d="M6 2a1 1 0 0 1 .993 .883l.007 .117v1.068l13.071 .935a1 1 0 0 1 .929 1.024l-.01 .114l-1 7a1 1 0 0 1 -.877 .853l-.113 .006h-12v2h10a3 3 0 1 1 -2.995 3.176l-.005 -.176l.005 -.176c.017 -.288 .074 -.564 .166 -.824h-5.342a3 3 0 1 1 -5.824 1.176l-.005 -.176l.005 -.176a3.002 3.002 0 0 1 1.995 -2.654v-12.17h-1a1 1 0 0 1 -.993 -.883l-.007 -.117a1 1 0 0 1 .883 -.993l.117 -.007h2zm0 16a1 1 0 1 0 0 2a1 1 0 0 0 0 -2m11 0a1 1 0 1 0 0 2a1 1 0 0 0 0 -2" />
  </g>
  <text x="198" y="214" font-family="'Microsoft YaHei', Arial, sans-serif" font-size="26" font-weight="800" fill="#1E2A25">前台交易层</text>
  <text x="198" y="248" font-family="'Microsoft YaHei', Arial, sans-serif" font-size="19" fill="#5F6E65">商品浏览、购物车、地址确认、下单成功提示订单号</text>
  <path fill="#FFFFFF" stroke="#DDE6DB" stroke-width="1.5" d="M94,306 H818 A18,18 0 0 1 836,324 V396 A18,18 0 0 1 818,414 H94 A18,18 0 0 1 76,396 V324 A18,18 0 0 1 94,306 Z" />
  <path fill="#EEF4EC" d="M110,326 H156 A14,14 0 0 1 170,340 V380 A14,14 0 0 1 156,394 H110 A14,14 0 0 1 96,380 V340 A14,14 0 0 1 110,326 Z" />

  <g transform="translate(115, 342) scale(1.5)" fill="#D6A756">
    <path d="M8.207 3.793a1 1 0 0 1 0 1.414l-2.5 2.5a1 1 0 0 1 -1.414 0l-1.5 -1.5a1 1 0 0 1 1.414 -1.414l.793 .793l1.793 -1.793a1 1 0 0 1 1.414 0" />
    <path d="M8.207 9.793a1 1 0 0 1 0 1.414l-2.5 2.5a1 1 0 0 1 -1.414 0l-1.5 -1.5a1 1 0 0 1 1.414 -1.414l.793 .793l1.793 -1.793a1 1 0 0 1 1.414 0" />
    <path d="M8.207 15.793a1 1 0 0 1 0 1.414l-2.5 2.5a1 1 0 0 1 -1.414 0l-1.5 -1.5a1 1 0 0 1 1.414 -1.414l.793 .793l1.793 -1.793a1 1 0 0 1 1.414 0" />
    <path d="M21 6a1 1 0 0 1 -1 1h-9a1 1 0 0 1 0 -2h9a1 1 0 0 1 1 1" />
    <path d="M21 12a1 1 0 0 1 -1 1h-9a1 1 0 0 1 0 -2h9a1 1 0 0 1 1 1" />
    <path d="M21 18a1 1 0 0 1 -1 1h-9a1 1 0 0 1 0 -2h9a1 1 0 0 1 1 1" />
  </g>
  <text x="198" y="354" font-family="'Microsoft YaHei', Arial, sans-serif" font-size="26" font-weight="800" fill="#1E2A25">本地数据层</text>
  <text x="198" y="388" font-family="'Microsoft YaHei', Arial, sans-serif" font-size="19" fill="#5F6E65">pawNaturalOrders 保存真实订单，pawNaturalProducts 保存后台新品</text>
  <path fill="#FFFFFF" stroke="#DDE6DB" stroke-width="1.5" d="M94,446 H818 A18,18 0 0 1 836,464 V536 A18,18 0 0 1 818,554 H94 A18,18 0 0 1 76,536 V464 A18,18 0 0 1 94,446 Z" />
  <path fill="#EEF4EC" d="M110,466 H156 A14,14 0 0 1 170,480 V520 A14,14 0 0 1 156,534 H110 A14,14 0 0 1 96,520 V480 A14,14 0 0 1 110,466 Z" />

  <g transform="translate(115, 482) scale(1.5)" fill="#2F5D50">
    <path d="M12 2.954a10 10 0 0 1 6.222 17.829a1 1 0 0 1 -.622 .217h-11.2a1 1 0 0 1 -.622 -.217a10 10 0 0 1 6.222 -17.829m4.207 5.839a1 1 0 0 0 -1.414 0l-2.276 2.274a2.003 2.003 0 0 0 -2.514 1.815l-.003 .118a2 2 0 1 0 3.933 -.517l2.274 -2.276a1 1 0 0 0 0 -1.414" />
  </g>
  <text x="198" y="494" font-family="'Microsoft YaHei', Arial, sans-serif" font-size="26" font-weight="800" fill="#1E2A25">后台经营层</text>
  <text x="198" y="528" font-family="'Microsoft YaHei', Arial, sans-serif" font-size="19" fill="#5F6E65">订单列表、营业额、订单数、售出件数、销量排行、新品上架</text>
  <path fill="#2F5D50" d="M906,164 H1182 A22,22 0 0 1 1204,186 V534 A22,22 0 0 1 1182,556 H906 A22,22 0 0 1 884,534 V186 A22,22 0 0 1 906,164 Z" />
  <text x="922" y="210" font-family="'Microsoft YaHei', Arial, sans-serif" font-size="26" font-weight="800" fill="#FFFFFF">后台看板快照</text>
  <path fill="#FFFFFF" fill-opacity="0.15" d="M934,244 H1016 A12,12 0 0 1 1028,256 V314 A12,12 0 0 1 1016,326 H934 A12,12 0 0 1 922,314 V256 A12,12 0 0 1 934,244 Z" />
  <text x="944" y="274" font-family="'Microsoft YaHei', Arial, sans-serif" font-size="16" fill="#FFFFFF">营业额</text>
  <text x="944" y="306" font-family="'Microsoft YaHei', Arial, sans-serif" font-size="25" font-weight="800" fill="#FFFFFF">¥12k</text>
  <path fill="#FFFFFF" fill-opacity="0.15" d="M1070,244 H1152 A12,12 0 0 1 1164,256 V314 A12,12 0 0 1 1152,326 H1070 A12,12 0 0 1 1058,314 V256 A12,12 0 0 1 1070,244 Z" />
  <text x="1080" y="274" font-family="'Microsoft YaHei', Arial, sans-serif" font-size="16" fill="#FFFFFF">订单数</text>
  <text x="1080" y="306" font-family="'Microsoft YaHei', Arial, sans-serif" font-size="25" font-weight="800" fill="#FFFFFF">86</text>
  <path fill="#FFFFFF" d="M936,356 H1150 A14,14 0 0 1 1164,370 V482 A14,14 0 0 1 1150,496 H936 A14,14 0 0 1 922,482 V370 A14,14 0 0 1 936,356 Z" />
  <text x="948" y="390" font-family="'Microsoft YaHei', Arial, sans-serif" font-size="20" font-weight="800" fill="#1E2A25">销量排行</text>
  <path fill="#8EB69B" d="M954,412 H1112 A6,6 0 0 1 1118,418 V418 A6,6 0 0 1 1112,424 H954 A6,6 0 0 1 948,418 V418 A6,6 0 0 1 954,412 Z" />
  <path fill="#D6A756" d="M954,442 H1076 A6,6 0 0 1 1082,448 V448 A6,6 0 0 1 1076,454 H954 A6,6 0 0 1 948,448 V448 A6,6 0 0 1 954,442 Z" />
  <path fill="#8EB69B" d="M954,472 H1040 A6,6 0 0 1 1046,478 V478 A6,6 0 0 1 1040,484 H954 A6,6 0 0 1 948,478 V478 A6,6 0 0 1 954,472 Z" />
  <text x="60" y="674" font-family="'Microsoft YaHei', Arial, sans-serif" font-size="15" fill="#8A968E">Source: admin.html、admin.js 与本地订单/商品接口</text>
  <text x="1220" y="674" font-family="'Microsoft YaHei', Arial, sans-serif" font-size="15" fill="#8A968E" text-anchor="end">07</text>
</svg>