<svg xmlns="http://www.w3.org/2000/svg" viewBox="0 0 1280 720" width="1280" height="720">
  <rect width="1280" height="720" fill="#F6F8F3"/>
  <image href="../images/ai_cover_lifestyle.png" x="0" y="0" width="1280" height="720" preserveAspectRatio="xMidYMid slice"/>
  <rect x="0" y="0" width="640" height="720" fill="#F6F8F3" fill-opacity="0.9"/>
  <rect x="60" y="54" width="196" height="46" rx="23" fill="#FFFFFF" stroke="#DDE6DB" stroke-width="1.5"/>
  <use data-icon="tabler-filled/paw" x="82" y="64" width="26" height="26" fill="#2F5D50"/>
  <text x="120" y="84" font-family="'Microsoft YaHei', Arial, sans-serif" font-size="20" font-weight="700" fill="#2F5D50">岚禾小食</text>
  <text x="60" y="204" font-family="'Microsoft YaHei', Arial, sans-serif" font-size="76" font-weight="800" fill="#1E2A25">宠物零食</text>
  <text x="60" y="292" font-family="'Microsoft YaHei', Arial, sans-serif" font-size="76" font-weight="800" fill="#1E2A25">品牌招商方案</text>
  <text x="64" y="354" font-family="'Microsoft YaHei', Arial, sans-serif" font-size="28" fill="#5F6E65">天然配方、清晰货架、可演示经营闭环</text>
  <rect x="64" y="420" width="142" height="44" rx="22" fill="#2F5D50"/>
  <text x="135" y="450" text-anchor="middle" font-family="'Microsoft YaHei', Arial, sans-serif" font-size="20" font-weight="700" fill="#FFFFFF">渠道合作</text>
  <rect x="220" y="420" width="160" height="44" rx="22" fill="#FFFFFF" stroke="#DDE6DB" stroke-width="1.5"/>
  <text x="300" y="450" text-anchor="middle" font-family="'Microsoft YaHei', Arial, sans-serif" font-size="20" font-weight="700" fill="#2F5D50">门店陈列</text>
  <rect x="394" y="420" width="166" height="44" rx="22" fill="#FFFFFF" stroke="#DDE6DB" stroke-width="1.5"/>
  <text x="477" y="450" text-anchor="middle" font-family="'Microsoft YaHei', Arial, sans-serif" font-size="20" font-weight="700" fill="#2F5D50">私域复购</text>
  <line x1="64" y1="548" x2="520" y2="548" stroke="#DDE6DB" stroke-width="1.5"/>
  <text x="64" y="586" font-family="'Microsoft YaHei', Arial, sans-serif" font-size="20" fill="#5F6E65">基于官网与静态商城代码梳理</text>
  <text x="64" y="618" font-family="'Microsoft YaHei', Arial, sans-serif" font-size="18" fill="#8A968E">招商叙事版本 2026</text>
  <text x="1186" y="674" font-family="'Microsoft YaHei', Arial, sans-serif" font-size="15" fill="#FFFFFF" fill-opacity="0.85" text-anchor="end">01</text>
</svg>
