<svg xmlns="http://www.w3.org/2000/svg" viewBox="0 0 1280 720" width="1280" height="720">
  <rect width="1280" height="720" fill="#F6F8F3"/>
  <image href="../images/ai_partnership_closing.png" x="0" y="0" width="1280" height="720" preserveAspectRatio="xMidYMid slice"/>
  <rect x="0" y="0" width="1280" height="720" fill="#1E2A25" fill-opacity="0.18"/>
  <rect x="58" y="70" width="570" height="548" rx="26" fill="#F6F8F3" fill-opacity="0.93"/>
  <use data-icon="tabler-filled/paw" x="104" y="118" width="44" height="44" fill="#2F5D50"/>
  <text x="164" y="150" font-family="'Microsoft YaHei', Arial, sans-serif" font-size="28" font-weight="800" fill="#2F5D50">岚禾小食</text>
  <text x="104" y="244" font-family="'Microsoft YaHei', Arial, sans-serif" font-size="52" font-weight="800" fill="#1E2A25">一起把天然宠物零食</text>
  <text x="104" y="310" font-family="'Microsoft YaHei', Arial, sans-serif" font-size="52" font-weight="800" fill="#1E2A25">做成可复购的渠道生意</text>
  <text x="108" y="374" font-family="'Microsoft YaHei', Arial, sans-serif" font-size="24" fill="#5F6E65">用清晰产品、可演示商城和经营后台，</text>
  <text x="108" y="412" font-family="'Microsoft YaHei', Arial, sans-serif" font-size="24" fill="#5F6E65">帮助合作方完成从试销到复购的第一轮验证。</text>
  <rect x="108" y="472" width="138" height="44" rx="22" fill="#2F5D50"/>
  <text x="177" y="502" text-anchor="middle" font-family="'Microsoft YaHei', Arial, sans-serif" font-size="20" font-weight="700" fill="#FFFFFF">选品试销</text>
  <rect x="262" y="472" width="138" height="44" rx="22" fill="#FFFFFF" stroke="#DDE6DB" stroke-width="1.5"/>
  <text x="331" y="502" text-anchor="middle" font-family="'Microsoft YaHei', Arial, sans-serif" font-size="20" font-weight="700" fill="#2F5D50">样板陈列</text>
  <rect x="416" y="472" width="138" height="44" rx="22" fill="#FFFFFF" stroke="#DDE6DB" stroke-width="1.5"/>
  <text x="485" y="502" text-anchor="middle" font-family="'Microsoft YaHei', Arial, sans-serif" font-size="20" font-weight="700" fill="#2F5D50">数据复盘</text>
  <line x1="108" y1="554" x2="548" y2="554" stroke="#DDE6DB" stroke-width="1.5"/>
  <text x="108" y="590" font-family="'Microsoft YaHei', Arial, sans-serif" font-size="18" fill="#8A968E">招商演示稿 · 基于 Pet-treats 静态商城与后台方案</text>
  <text x="1220" y="674" font-family="'Microsoft YaHei', Arial, sans-serif" font-size="15" fill="#FFFFFF" fill-opacity="0.85" text-anchor="end">10</text>
</svg>
